<svg width="32" height="32" viewBox="0 0 32 32" fill="none" xmlns="http://www.w3.org/2000/svg">
<path d="M1.5 27.5V6.513C1.5 5.403 2.397 4.5 3.5 4.5H11.397C11.864 4.5 12.333 4.667 12.716 4.972L16.384 8.211C16.646 8.417 16.819 8.5 17 8.5H27.5C28.603 8.5 29.5 9.397 29.5 10.5V27.5H1.5Z" fill="#B36601"/>
<path d="M11.397 5C11.763 5 12.119 5.136 12.406 5.364L16.054 8.586C16.341 8.813 16.634 9 17 9H27.5C28.328 9 29 9.672 29 10.5V27H2V6.513C2 5.684 2.672 5 3.5 5H11.397ZM11.397 4H3.5C2.121 4 1 5.127 1 6.513V27V28H2H29H30V27V10.5C30 9.122 28.878 8 27.5 8H17C16.973 8 16.898 7.976 16.695 7.817L13.069 4.614L13.049 4.596L13.027 4.58C12.555 4.206 11.976 4 11.397 4Z" fill="white"/>
<path d="M3 26H28V12C28 11.448 27.552 11 27 11H4C3.448 11 3 11.448 3 12V26Z" fill="#E3992E"/>
<path fill-rule="evenodd" clip-rule="evenodd" d="M18.7647 15.5883H11.6471V23C11.6471 23.5523 12.0948 24 12.6471 24H17.7647C18.317 24 18.7647 23.5523 18.7647 23V15.5883ZM13.5882 16.8824H12.9412V22.706H13.5882V16.8824ZM14.8824 16.8824H15.5294V22.706H14.8824V16.8824ZM17.4706 16.8824H16.8235V22.706H17.4706V16.8824Z" fill="white"/>
<rect x="11" y="13.647" width="8.41177" height="1.29412" fill="white"/>
<rect x="14.2353" y="13" width="1.94118" height="1.29412" fill="white"/>
</svg>
